<svg xmlns="http://www.w3.org/2000/svg" xmlns:ns1="http://sozi.baierouge.fr" xmlns:svg="http://www.w3.org/2000/svg" xmlns:xlink="http://www.w3.org/1999/xlink" version="1.1" viewBox="0 0 104.88 199.22"><defs><linearGradient id="linearGradient4408" x1="82.16" x2="139.05" y1="41.07" y2="346.89" gradientUnits="userSpaceOnUse"><stop offset="0" stop-color="red"/><stop offset="1" stop-color="red" stop-opacity="0"/></linearGradient></defs><g stroke="#000"><path fill="url(#linearGradient4408)" stroke-width="2" d="m100 40.938c-28.403 0-51.438 23.034-51.438 51.438 0 16.88 8.1271 31.842 20.688 41.219l31.03 102.06 29.53-101.41c13.081-9.3239 21.625-24.587 21.625-41.875 0-28.403-23.034-51.438-51.438-51.438z" transform="translate(-47.562 -39.938)"/><path fill="#FFF" stroke-width="2.594" d="m152.28 90.697c0 27.755-22.5 50.255-50.255 50.255s-50.255-22.5-50.255-50.255 22.5-50.255 50.255-50.255 50.255 22.5 50.255 50.255z" transform="translate(-47.562 -39.938) matrix(.77112 0 0 .77112 21.331 22.274)"/></g><metadata/></svg>